<?xml version="1.0" encoding="utf-8"?>
<!-- Generator: Adobe Illustrator 19.2.0, SVG Export Plug-In . SVG Version: 6.00 Build 0)  -->
<svg version="1.1" id="Layer_1" xmlns="http://www.w3.org/2000/svg" xmlns:xlink="http://www.w3.org/1999/xlink" x="0px" y="0px"
	 viewBox="0 0 512 512" style="enable-background:new 0 0 512 512;" xml:space="preserve">
<style type="text/css">
	.st0{fill:#515151;}
	.st1{fill:#FF3249;}
</style>
<path class="st0" d="M352,458H160c-11,0-20,9-20,20s9,20,20,20h192c11,0,20-9,20-20S363,458,352,458z"/>
<path class="st0" d="M472,155.4V298c0,44.2-35.8,80-80,80H120c-44.2,0-80-35.8-80-80V134c0-44.2,35.8-80,80-80h239.6
	c11,0,20-9,20-20l0,0c0-11-9-20-20-20H120C53.7,14,0,67.7,0,134v164c0,66.3,53.7,120,120,120h272c66.3,0,120-53.7,120-120V155.4
	c0-11-9-20-20-20l0,0C481,135.4,472,144.3,472,155.4z"/>
<g>
	<path class="st1" d="M312.4,222c-5.6-12-13.7-21.9-24.7-29.6c7-10.8,12.4-22.5,21.6-31.7c18.3-18.2,37.7-35.2,57.6-51.7
		c40-33.2,81-65.1,123.7-94.7c6.5-4.5,13.2-8.5,20-12.6c1.6-1,3.9-2.9,5.5-0.8c0.7,0.9-0.2,3.8-1.2,5.3c-7.5,10.8-14.9,21.7-23,32
		c-38,48.7-77.8,95.9-120.7,140.4c-8,8.3-16.3,16.3-24.9,23.9c-4.3,3.8-9.4,6.8-14.4,9.6C325.7,215.7,319.1,218.7,312.4,222z"/>
	<path class="st1" d="M169.1,298.8c0.6-0.8,1-1.9,1.7-2.1c7.5-2.2,13.4-6.9,18.9-11.9c10.9-9.9,18.8-21.8,24.5-35.3
		c5-11.9,11.1-23.1,20.3-32.3c9.5-9.5,20.7-15.2,34.5-14.9c3.9,0.1,7.4,1.1,10.6,3.5c10.2,7.7,17.6,17.5,22.4,29.4
		c0.3,0.8,0.5,1.7,0.3,2.5c-3.3,14.7-8.2,28.8-17,41.3c-12.9,18.4-30.8,28.1-52.9,30.3c-21.6,2.1-42.2-2.6-62.3-9.8
		C169.9,299.4,169.7,299.2,169.1,298.8z"/>
</g>
</svg>
