<?xml version="1.0" encoding="utf-8"?>
<!-- Generator: Adobe Illustrator 19.2.0, SVG Export Plug-In . SVG Version: 6.00 Build 0)  -->
<svg version="1.1" id="Layer_1" xmlns="http://www.w3.org/2000/svg" xmlns:xlink="http://www.w3.org/1999/xlink" x="0px" y="0px"
	 viewBox="0 0 512 512" style="enable-background:new 0 0 512 512;" xml:space="preserve">
<style type="text/css">
	.st0{fill:#FF3249;}
	.st1{fill:#515151;}
</style>
<g>
	<path class="st0" d="M368.5,288.2c-6.9,0-13.3-3.8-16.7-9.9l-41.3-75.6l-75.6-41.3c-6.1-3.3-9.9-9.7-9.9-16.7s3.8-13.3,9.9-16.7
		l75.6-41.3l41.3-75.6c3.3-6.1,9.7-9.9,16.7-9.9s13.3,3.8,16.7,9.9l41.3,75.6l75.6,41.3c6.1,3.3,9.9,9.7,9.9,16.7
		s-3.8,13.3-9.9,16.7l-75.6,41.3l-41.3,75.6C381.9,284.4,375.5,288.2,368.5,288.2z M274.6,144.8l55.3,30.2c3.5,1.9,6.4,4.8,8.4,8.4
		l30.2,55.3l30.2-55.3c1.9-3.5,4.8-6.4,8.4-8.4l55.3-30.2l-55.3-30.2c-3.5-1.9-6.4-4.8-8.4-8.4l-30.2-55.3l-30.2,55.3
		c-1.9,3.5-4.8,6.4-8.4,8.4L274.6,144.8z"/>
</g>
<g>
	<path class="st1" d="M349.5,508.3h-186C96,508.3,41,453.3,41,385.8v-212c0-67.5,55-122.5,122.5-122.5H211c10.5,0,19,8.5,19,19
		s-8.5,19-19,19h-47.5c-46.6,0-84.5,37.9-84.5,84.5v212c0,46.6,37.9,84.5,84.5,84.5h186c46.6,0,84.5-37.9,84.5-84.5V273.3
		c0-10.5,8.5-19,19-19s19,8.5,19,19v112.5C472,453.3,417,508.3,349.5,508.3z"/>
</g>
<g>
	<path class="st1" d="M350,402.3H168c-10.5,0-19-8.5-19-19s8.5-19,19-19h182c10.5,0,19,8.5,19,19S360.5,402.3,350,402.3z"/>
</g>
</svg>
