<?xml version="1.0" encoding="utf-8"?>
<!-- Generator: Adobe Illustrator 19.2.0, SVG Export Plug-In . SVG Version: 6.00 Build 0)  -->
<svg version="1.1" id="Layer_1" xmlns="http://www.w3.org/2000/svg" xmlns:xlink="http://www.w3.org/1999/xlink" x="0px" y="0px"
	 viewBox="0 0 512 512" style="enable-background:new 0 0 512 512;" xml:space="preserve">
<style type="text/css">
	.st0{fill:#515151;}
	.st1{fill:#FF3249;}
</style>
<path class="st0" d="M304,472H120c-44.2,0-80-35.8-80-80V120c0-44.2,35.8-80,80-80h184c32.2,0,59.9,19.1,72.6,46.5
	c3.3,7.1,10.4,11.8,18.2,11.8h0c14.5,0,24.3-15,18.3-28.2C394.1,28.8,352.4,0,304,0H120C53.7,0,0,53.7,0,120v272
	c0,66.3,53.7,120,120,120h184c49.9,0,92.8-30.7,110.9-74.1c5.5-13.1-4.3-27.6-18.5-27.6h0c-8.1,0-15.4,5-18.5,12.5
	C365.8,451.6,337.2,472,304,472z"/>
<path class="st0" d="M404.9,121.7c-37.3,0-67.7,30.4-67.7,67.7s30.4,67.7,67.7,67.7s67.7-30.4,67.7-67.7S442.2,121.7,404.9,121.7z
	 M404.9,219.5c-16.6,0-30.1-13.5-30.1-30.1s13.5-30.1,30.1-30.1c16.6,0,30.1,13.5,30.1,30.1S421.5,219.5,404.9,219.5z"/>
<path class="st1" d="M478.2,394.2c-10.4,0-18.8-8.4-18.8-18.8c0-27.4-22.4-49.7-50-49.7h-12.7c-27.6,0-50,22.3-50,49.7
	c0,10.4-8.4,18.8-18.8,18.8c-10.4,0-18.8-8.4-18.8-18.8c0-48.1,39.3-87.3,87.6-87.3h12.7c48.3,0,87.6,39.2,87.6,87.3
	C497,385.8,488.6,394.2,478.2,394.2z"/>
<circle class="st0" cx="208.2" cy="388.3" r="35"/>
</svg>
