<?xml version="1.0" encoding="utf-8"?>
<!-- Generator: Adobe Illustrator 19.2.0, SVG Export Plug-In . SVG Version: 6.00 Build 0)  -->
<svg version="1.1" id="Layer_1" xmlns="http://www.w3.org/2000/svg" xmlns:xlink="http://www.w3.org/1999/xlink" x="0px" y="0px"
	 viewBox="0 0 512 512" style="enable-background:new 0 0 512 512;" xml:space="preserve">
<style type="text/css">
	.st0{fill:#515151;}
	.st1{fill:#FF3249;}
</style>
<path class="st0" d="M352,465H160c-11,0-20,9-20,20s9,20,20,20h192c11,0,20-9,20-20S363,465,352,465z"/>
<path class="st0" d="M472,162.4V305c0,44.2-35.8,80-80,80H120c-44.2,0-80-35.8-80-80V141c0-44.2,35.8-80,80-80h239.6
	c11,0,20-9,20-20l0,0c0-11-9-20-20-20H120C53.7,21,0,74.7,0,141v164c0,66.3,53.7,120,120,120h272c66.3,0,120-53.7,120-120V162.4
	c0-11-9-20-20-20l0,0C481,142.4,472,151.3,472,162.4z"/>
<path class="st0" d="M40,283.6V141c0-44.2,35.8-80,80-80h272c44.2,0,80,35.8,80,80v164c0,44.2-35.8,80-80,80H152.4c-11,0-20,9-20,20
	l0,0c0,11,9,20,20,20H392c66.3,0,120-53.7,120-120V141c0-66.3-53.7-120-120-120H120C53.7,21,0,74.7,0,141l0,142.6c0,11,9,20,20,20
	l0,0C31,303.6,40,294.7,40,283.6z"/>
<path class="st1" d="M229.1,324.8c-3-1-6.3-1.6-9.1-3.1c-6.5-3.4-9-9.8-6.9-16.8c10.2-33,20.4-66.1,30.9-99
	c7.9-24.8,16.4-49.3,24.5-74c1.2-3.6,3.3-6.3,6.6-8.2c8.2-4.9,18.3-2.1,22.9,6.4c1.8,3.4,2,6.7,0.9,10.4
	c-9.3,29.7-18.3,59.4-27.8,89c-9.1,28.4-18.7,56.6-28.1,84.9C240.8,320.9,236,324.2,229.1,324.8z"/>
<path class="st0" d="M142.9,223.1c3.5,1.8,6,3.1,8.6,4.3c13.8,6.6,27.6,13.2,41.5,19.6c5.8,2.7,9.4,6.8,10.9,13.1
	c2.3,9.8-7.7,20.5-17.5,18c-5.8-1.5-11.5-3.8-16.9-6.3c-24.1-11.1-48.2-22.4-72.2-33.8c-8.3-3.9-11.4-12.6-8.2-21.1
	c1.4-3.7,3.9-6.4,7.3-8.1c9.1-4.5,18.3-9.1,27.6-13.4c17.9-8.3,35.9-16.4,53.8-24.6c1.7-0.8,3.4-1.4,5.2-2c9.3-3,16.1,0.4,20,9.7
	c3,7.2-0.3,15.9-7.8,19.7c-10.4,5.2-21,10-31.4,14.9C157.2,216.4,150.6,219.5,142.9,223.1z"/>
<path class="st0" d="M368.6,223.1c-5.5-2.7-10.1-4.9-14.8-7.2c-12.2-6-24.4-11.9-36.6-17.9c-5.9-2.9-9.6-7.4-9.4-14.2
	c0.2-7.1,4.1-12,10.1-15.1c1.8-0.9,4.4-1.2,6.3-0.6c6.6,2.1,13.3,4.3,19.6,7.1c23.7,10.9,47.3,21.9,70.9,33.1
	c9.3,4.4,12.1,15.7,6.2,24.2c-1.2,1.8-2.9,3.5-4.8,4.4c-29,13.5-58,27.1-87.1,40.3c-6.8,3.1-13.6,0.8-17.9-4.9
	c-4.4-5.7-4.6-13.6-0.3-19.1c1.5-1.9,3.7-3.6,5.9-4.7c15.5-7.7,31.1-15.1,46.6-22.7C364.9,225.1,366.3,224.3,368.6,223.1z"/>
</svg>
