<?xml version="1.0" encoding="utf-8"?>
<!-- Generator: Adobe Illustrator 19.2.0, SVG Export Plug-In . SVG Version: 6.00 Build 0)  -->
<svg version="1.1" id="Layer_1" xmlns="http://www.w3.org/2000/svg" xmlns:xlink="http://www.w3.org/1999/xlink" x="0px" y="0px"
	 viewBox="0 0 512 512" style="enable-background:new 0 0 512 512;" xml:space="preserve">
<style type="text/css">
	.st0{fill:#515151;}
	.st1{fill:#FF3249;}
</style>
<path class="st0" d="M391.8,3.9c9.7,5,20.9,8.3,28.8,15.3c18.3,16.2,35.2,34,52.2,51.7c17.7,18.5,17.8,43.2-0.2,61.5
	c-54.5,55-109.3,109.8-164.4,164.2c-6.3,6.2-15.1,10.9-23.5,13.6c-38.5,12.6-77.1,24.5-116,35.8c-6.3,1.8-16.1,1.2-20.5-2.6
	c-3.7-3.2-4-13.4-2.3-19.4c11.3-38.8,23.1-77.5,35.9-115.9c3.2-9.5,8.8-19.2,15.8-26.3c52.6-53.5,105.9-106.3,158.9-159.5
	C366,12.7,376.7,6.6,391.8,3.9z M247.8,219.1c39.3-39.3,77.9-77.9,115.4-115.4c-6.4-7.2-13.7-15.4-19.5-21.9
	c-39.4,39.3-78.2,77.9-116.5,116.1C234,204.8,241.4,212.5,247.8,219.1z M294.8,265.2c38.5-38.7,77.2-77.6,113.7-114.3
	c-6.2-7.4-13.3-15.8-18.7-22.3C350.6,167.8,312,206.4,274,244.4C280.6,250.9,288.1,258.5,294.8,265.2z M436.4,131
	c5.1-6.7,9.4-12.9,14.3-18.7c6.3-7.4,6.3-14.4-0.4-21.2c-16-16.2-32.1-32.3-48.4-48.3c-7.5-7.4-15.1-7.5-23.1-0.1
	c-5.2,4.8-11.2,8.8-16.3,12.7C387.7,81.2,410,104,436.4,131z M266.3,285.1c-19.9-20-39.3-39.3-59-59c-6,19.6-12.7,40.1-18.6,60.8
	c-2.2,7.8,9.9,18.9,17.7,16.6C226.7,297.5,246.9,291.1,266.3,285.1z"/>
<g>
	<path class="st1" d="M354.2,503.5c-7.4,0-14.4-4.6-17-12c-3.3-9.4,1.6-19.7,11-23c5.7-2,19.6-8.4,32.5-16.8
		c13.8-9.1,19.1-15.7,20.5-18.5c-0.5-0.5-1.3-1.1-2.5-1.9c-3.8-2.4-10-3.4-16.1-4.3c-87.6-12.7-175.4,5.7-233.5,23.4
		c-0.6,0.2-1.5,0.5-2.5,0.8c-35.2,11.1-59.5,15.1-72.2,0.6c-4.1-4.7-9.8-14.9-2.2-30.8c4.1-8.7,12-20.6,17.8-29
		c2.9-4.2,6-8.4,8.5-11.7c1.2-1.6,2.2-2.9,3-3.9c8.6-10.5,18.7-7.7,21.6-6.5c8.8,3.4,13.4,13.2,10.6,22.2c-1,3.1-2.7,5.8-4.9,7.8
		c-2.9,3.6-10.4,14-16.5,23.5c5.6-1.2,13.2-3.3,23.4-6.5c1.2-0.4,2.2-0.7,2.9-0.9c61.7-18.8,155-38.3,249.2-24.6
		c9.4,1.4,20.3,3.3,30,9.4c19.1,12,20.5,27.3,19.6,35.4c-4.3,39-76.4,66.1-77.1,66.3C358.2,503.1,356.1,503.5,354.2,503.5z"/>
</g>
</svg>
