<?xml version="1.0" encoding="utf-8"?>
<!-- Generator: Adobe Illustrator 19.2.0, SVG Export Plug-In . SVG Version: 6.00 Build 0)  -->
<svg version="1.1" id="Layer_1" xmlns="http://www.w3.org/2000/svg" xmlns:xlink="http://www.w3.org/1999/xlink" x="0px" y="0px"
	 viewBox="0 0 512 512" style="enable-background:new 0 0 512 512;" xml:space="preserve">
<style type="text/css">
	.st0{fill:#515151;}
	.st1{fill:#D63447;}
	.st2{fill:#FF3249;}
</style>
<path class="st0" d="M256,512c-68.4,0-132.7-26.6-181-75C26.6,388.7,0,324.4,0,256S26.6,123.3,75,75C123.3,26.6,187.6,0,256,0
	c82.3,0,160.2,39.7,208.2,106.3c6.5,9,4.4,21.5-4.5,27.9c-9,6.5-21.5,4.4-27.9-4.5C391.2,73.5,325.5,40,256,40
	C136.9,40,40,136.9,40,256s96.9,216,216,216c69.5,0,135.2-33.5,175.8-89.7c6.5-9,19-11,27.9-4.5c9,6.5,11,19,4.5,27.9
	C416.2,472.3,338.3,512,256,512z"/>
<path class="st0" d="M47.8,405.7c-6.5-9-4.4-21.5,4.5-27.9c9-6.5,21.5-4.4,27.9,4.5C120.8,438.5,186.5,472,256,472
	c119.1,0,216-96.9,216-216S375.1,40,256,40c-69.5,0-135.2,33.5-175.8,89.7c-6.5,9-19,11-27.9,4.5c-9-6.5-11-19-4.5-27.9
	C95.8,39.7,173.7,0,256,0c68.4,0,132.7,26.6,181,75c48.4,48.4,75,112.6,75,181s-26.6,132.7-75,181c-48.4,48.4-112.6,75-181,75
	C173.7,512,95.8,472.3,47.8,405.7z"/>
<path class="st0" d="M308.5,380c10.2-4.3,14.9-16.1,10.5-26.3c-4.3-10.2-16.1-14.9-26.3-10.5c-23.9,10.2-50,10.4-73.6,0.5
	c-48.3-20.3-71.1-76.1-50.8-124.4s76.1-71.1,124.4-50.8c23.6,9.9,41.7,28.7,51.2,52.8c4,10.3,15.6,15.4,25.9,11.4
	c10.3-4,15.4-15.6,11.4-25.9c-13.4-34.4-39.3-61.1-72.9-75.2c-68.6-28.8-147.9,3.6-176.7,72.2s3.6,147.9,72.2,176.7
	C237.4,394.7,274.6,394.5,308.5,380z"/>
<path class="st1" d="M1376.6-137.7c-5.5-5.4-8.5-12.7-8.5-20.3s3-14.9,8.5-20.3l23.6-23.5c7.8-7.8,7.9-20.5,0.1-28.3
	c-7.8-7.8-20.5-7.9-28.3-0.1l-23.6,23.5c-8.2,8.1-14.1,18-17.3,28.7h-180.9c-11,0-20,9-20,20c0,11,9,20,20,20H1331
	c3.3,10.7,9.1,20.6,17.3,28.7l23.6,23.5c3.9,3.9,9,5.8,14.1,5.8c5.1,0,10.3-2,14.2-5.9c7.8-7.8,7.7-20.5-0.1-28.3L1376.6-137.7z"/>
<g>
	<path class="st2" d="M1553.5,697c-5.6-12-13.7-21.9-24.7-29.6c7-10.8,12.4-22.5,21.6-31.7c18.3-18.2,37.7-35.2,57.6-51.7
		c40-33.2,81-65.1,123.7-94.7c6.5-4.5,13.2-8.5,20-12.6c1.6-1,3.9-2.9,5.5-0.8c0.7,0.9-0.2,3.8-1.2,5.3c-7.5,10.8-14.9,21.7-23,32
		c-38,48.7-77.8,95.9-120.7,140.4c-8,8.3-16.3,16.3-24.9,23.9c-4.3,3.8-9.4,6.8-14.4,9.6C1566.8,690.7,1560.2,693.7,1553.5,697z"/>
	<path class="st2" d="M1410.2,773.8c0.6-0.8,1-1.9,1.7-2.1c7.5-2.2,13.4-6.9,18.9-11.9c10.9-9.9,18.8-21.8,24.5-35.3
		c5-11.9,11.1-23.1,20.3-32.3c9.5-9.5,20.7-15.2,34.5-14.9c3.9,0.1,7.4,1.1,10.6,3.5c10.2,7.7,17.6,17.5,22.4,29.4
		c0.3,0.8,0.5,1.7,0.3,2.5c-3.3,14.7-8.2,28.8-17,41.3c-12.9,18.4-30.8,28.1-52.9,30.3c-21.6,2.1-42.2-2.6-62.3-9.8
		C1411,774.4,1410.8,774.2,1410.2,773.8z"/>
</g>
<ellipse transform="matrix(0.3871 -0.922 0.922 0.3871 -55.4142 517.2854)" class="st2" cx="361.4" cy="300.3" rx="33.9" ry="33.9"/>
</svg>
